<?xml version="1.0" encoding="UTF-8"?>
<!DOCTYPE svg PUBLIC "-//W3C//DTD SVG 1.1//EN" "http://www.w3.org/Graphics/SVG/1.1/DTD/svg11.dtd">
<!-- Creator: CorelDRAW 2020 (64-Bit) -->
<svg xmlns="http://www.w3.org/2000/svg" xml:space="preserve" width="156.982mm" height="131.93mm" version="1.1" style="shape-rendering:geometricPrecision; text-rendering:geometricPrecision; image-rendering:optimizeQuality; fill-rule:evenodd; clip-rule:evenodd"
viewBox="0 0 6937.1 5830.03"
 xmlns:xlink="http://www.w3.org/1999/xlink"
 xmlns:xodm="http://www.corel.com/coreldraw/odm/2003">
 <defs>
  <style type="text/css">
   <![CDATA[
    .fil0 {fill:#FFFFFF}
   ]]>
  </style>
 </defs>
 <g id="图层_x0020_1">
  <metadata id="CorelCorpID_0Corel-Layer"/>
  <path class="fil0" d="M4276.56 371.26c5.57,20.86 86.97,60.67 104.59,71.26 164.31,98.73 283.58,260.03 352.99,436.46 8.81,22.4 14.57,44.87 21.8,67.99 44.93,143.77 25.4,279.17 40.68,311.02 109.1,25.42 377.68,-37.08 463.04,49.54 46.8,47.5 53.28,76.79 53.28,145.02 0,46.66 -23.64,70.32 -47.7,94.47 -28.25,28.37 -49.29,41.64 -94.69,51.23 -46.12,9.74 -345.93,4.07 -433.94,3.81 -45.07,-0.14 -52.68,12.92 -79.69,66.23 -18.21,35.94 -60.42,99.78 -84.79,132.21 -66.3,88.22 -128.12,151.99 -204.84,229.16l-396.39 333.19c-7.27,6.17 -13.96,11.28 -20.43,16.98 -6.74,5.93 -11.84,13.53 -14.38,23.04 44.62,29.88 77.47,36.59 134.96,48.37 138.61,28.41 307.98,70.29 450.96,102.77 257.72,58.55 504.61,106.91 763.74,156.65 206.89,39.72 422.53,74.91 631.63,105.44 29.22,4.26 51.43,6.03 79.16,10.64 24.99,4.16 53.89,7.28 82.72,10.81 23.59,2.89 56.82,6.41 80.27,9.52 29.89,3.96 56.94,2.67 86.61,6.93 28.64,4.11 58.39,4.87 88.37,5.17l89.65 3.89c36.09,0 70.66,-3.5 103.72,-8.52 155.21,-23.55 241.53,-157.58 266.64,-309.54 13.34,-80.7 23.42,-111.45 30.22,-201.76l21.96 -206.27c5.51,-73.92 9.05,-143.64 11.35,-220.62 0.59,-19.89 4.05,-28.16 3.91,-52.21l3.69 -172.16c0,-76.9 3.74,-147.95 3.74,-228.23l-22.25 -699.85c-0.87,-10.84 0.46,-22.43 -0.4,-33.27 -1.42,-17.84 -5.66,-46.17 -7.08,-64.01 -4.49,-56.29 -3.22,-68.31 -11.64,-126.79 -8.75,-60.74 -12.87,-117.07 -24.38,-181.4 -4.09,-22.83 -8.11,-40.13 -11.86,-59.23 -40.17,-204.97 -188.79,-309.7 -393.83,-298.37 -21.26,1.17 -36.87,3.63 -63.71,3.63l-66.66 4.43c-40.2,4.31 -84.12,6.4 -126.71,11.72 -38.16,4.77 -85.04,8.98 -124.85,13.59 -41.29,4.77 -80.99,10.04 -122.5,15.93l-360.35 54.96c-39.74,6.68 -83.1,11.11 -120.25,18.19l-233.61 43.26c-185.36,30.91 -391.99,74.31 -578.18,113.98l-225.79 51.08c-30.54,7.62 -84.45,20.09 -98.78,39.66zm-4209.13 1088.76l3.59 280.76c0.27,21.61 4.07,28.2 3.98,52.14l22.39 434.06c4,84.39 35.77,315.49 62.16,394.3 11.36,33.91 20.44,52.68 35.03,80.96 56.73,109.89 174.35,160.83 295.63,160.83 62.52,0 117.25,-5.95 175.89,-7.45 161.68,-4.13 795.28,-106.18 969.94,-141.27 283.39,-56.94 561.14,-110.11 843.17,-174.51l489.38 -112.99c22.04,-7.15 16.89,-6.28 32.14,-16.5 -8.18,-35.14 -77.26,-79.25 -113.88,-106.87 -12.06,-9.09 -19.77,-15.85 -31.52,-24.61 -95.8,-71.36 -248.62,-208.32 -326.96,-286.64l-78.59 -86.03c-10.28,-10.11 -16.66,-19.26 -26.07,-30.05 -17.79,-20.4 -33.38,-40.14 -49.95,-62.3 -46.55,-62.27 -48.79,-67.06 -88.33,-132.41 -47.16,-77.93 -31.77,-83.34 -141.62,-83.12 -23.14,0.04 -29,3.96 -52.13,4l-306.93 -0.13c-29.32,0 -48.3,-6.96 -68.68,-17.37 -16.25,-8.3 -38.77,-23.67 -50.24,-35.81 -56.9,-60.22 -66.71,-168.97 11.29,-241.54 67.5,-62.8 212.26,-45.76 305.94,-45.76l131.19 0.23c20.52,-0.38 21.58,-3.52 33.43,-11.46 0,-145.26 2.27,-173.8 35.87,-308.34 26.05,-104.29 107.03,-259.19 184,-336.07 15.75,-15.73 33.44,-39.51 61.63,-65.58 111.56,-103.18 199.8,-125.78 231.08,-161.77 -17.75,-33.53 -57.31,-37.66 -106.99,-50.15l-795.01 -162.8 -408.59 -70.32c-48.53,-7.12 -88.32,-13.83 -135.71,-21.43 -109.99,-17.65 -241.36,-30.27 -352.24,-44.35l-375.24 -28.83c-124.74,0 -244.33,65.3 -296.84,170.84 -43.97,88.38 -75.63,278.25 -84.89,386.53l-26.17 381.65c0.08,18.38 1.37,41.95 -0.11,59.75 -6.04,72.91 -7.29,149.66 -7.29,228.42 0,42.67 -3.8,71.36 -3.74,112.24 0.05,39.91 0,79.82 0,119.72zm4845.17 3771.38c17.28,-11.57 27.55,-29.65 37.48,-48.57l111.66 -247.52c21.81,-53.68 60.65,-127.42 84.42,-184.97 5.15,-12.46 9.34,-18.43 14.47,-30.43l41.3 -93.38c9.72,-20.85 19.82,-41.34 28.65,-61.15 9.74,-21.83 18.31,-39.05 27.84,-61.95 9.49,-22.8 17.53,-39.97 27.25,-62.55 9.24,-21.46 19.33,-40.36 28.34,-61.45 23.12,-54.08 57.25,-131.04 95.29,-174.1 50.68,-57.36 104.62,-67.35 183.46,-85.93 47.59,-11.22 98.45,-21.03 146.74,-32.85l146.18 -33.41c48.98,-10.11 97.43,-22.21 145.66,-33.93l291.01 -68.17c23.43,-5.59 48.46,-9.27 73.26,-16.54 72.01,-21.09 77.38,-33.84 8.93,-101.51l-87.99 -95.34c-5.36,-6.06 -9.47,-9.03 -14.98,-14.95l-43.15 -50.38c-5.32,-6.36 -9.13,-9.16 -14.87,-15.07l-297.14 -353.88c-55.87,-69.31 -109.7,-146.54 -161.19,-209.21 -49.92,-60.77 -78.76,-52.87 -179.37,-67.56 -33.63,-4.91 -67.81,-12.54 -104.78,-18.68l-1129.52 -224.89c-36.32,-8.29 -63.88,-14.98 -100.2,-23.27 -94.25,-21.51 -209.67,-45.3 -299.46,-70.95 -65.44,-18.69 -134.48,-32.09 -197.46,-49.48 -111.51,-30.79 -105.35,17.23 -78.29,104.48 57.58,185.74 114.81,376.81 184.91,555.9 36.75,93.9 81.16,216.72 122.43,307.83 76.38,168.6 132.73,295.55 216.95,463.99l113.47 223.26c112.45,209.46 271.25,485.97 398.38,682.9 8.66,13.42 16.15,25.31 24.37,39.23l48.2 75.27c28.25,41.83 63.93,116 107.75,139.19zm-4426.13 -1335.7c0,32.64 99.62,49 125.05,54.54l437.65 101.12c50.15,12.62 96.13,21.15 145.92,33.67l145.37 34.22c86.29,18.19 154.62,38.18 207.07,107.21 33.79,44.47 51.48,102 76.31,151.92l56.11 123.48c18.59,41.66 36.2,83.14 56.21,123.38 29.84,60 53.06,126.91 82.27,187.11l83.89 185.49c8.76,21.22 19.16,40.79 28.25,61.55l57.43 122.16c9.62,19.33 22.51,44.18 43.7,49.84 44.04,-29.49 120.03,-164.45 151.24,-215.42 16.29,-26.6 31.72,-50.27 47.24,-76.23l94.98 -151.95c31.75,-53.03 60.44,-101.94 90.76,-156.18l260.56 -476.5c40.62,-81.24 85.34,-161.66 122.17,-244.49 76.33,-171.66 156.08,-342.03 222.96,-517.85 12.05,-31.69 21.04,-58.64 33.64,-89.83 11.87,-29.36 22.6,-56.78 32.98,-86.74 42.65,-122.99 87.3,-246.39 122.04,-371.83l41.22 -142.12c4.59,-17.62 10.62,-33.81 1.54,-50.15 -20.08,-36.11 -51.64,-23.12 -87.66,-13.52 -128.91,34.36 -263.62,63.57 -393.62,96.51 -170.15,43.11 -433.53,99.71 -604.38,132.69 -68.05,13.14 -136.2,29.43 -203.95,42.99l-729.22 131.32c-32.14,5.19 -50.35,12.43 -67.75,37.01 -9.58,13.53 -7.22,14.88 -20.19,28.45 -8.9,9.32 -5.04,9.7 -10.77,19.16l-10.3 12.15c-0.48,0.61 -1.16,1.48 -1.62,2.12l-15.45 21.97c-0.73,0.8 -2.96,2.99 -3.67,3.81l-132.62 166.7c-8.79,10.88 -22.17,19.56 -30.49,33.11l-66.55 83.11c-0.43,0.68 -0.99,1.63 -1.43,2.31l-52.91 66.82c-7.19,7.78 -11.27,8.3 -16.51,13.42 -11.3,11.02 -2.71,5.93 -11.73,18.2 -6.72,9.15 -10.86,9.34 -18.26,15.41 -17.06,14 -23.46,36.67 -40.53,49.27 -13.91,10.27 -15.06,22.74 -28.94,34.66 -31.06,26.66 -16.39,20.5 -46.81,46.73 -11.43,9.86 -18.15,20.09 -28.12,31.74 -11.56,13.49 -13.97,23.74 -28.17,35.43 -23.28,19.17 -114.89,104.6 -114.89,132.05zm2985.67 -1575.15c14.84,0 136.95,-85.97 160.18,-101.72 13.64,-9.24 22.67,-17.4 36.61,-26.99 14.41,-9.92 25.92,-17.87 39.5,-27.85l402.5 -327.07c21.87,-21.98 58.07,-51.85 86.16,-82.21 7.46,-8.07 7.92,-10.75 14.95,-18.72l61.93 -69.03c26.25,-31.24 63.55,-77.37 85.63,-112.67 9.22,-14.75 15.75,-27.73 24.74,-42.6 55.43,-91.72 90.51,-207.5 90.51,-317.31 0,-164.64 -70.85,-322.51 -189.91,-427.43 -7.65,-6.74 -10.66,-7.91 -18.65,-15.02 -25.63,-22.83 -75.69,-56.64 -106.19,-69.65 -221.23,-94.36 -408.76,-45.62 -591.2,100.03 -7.72,6.17 -15.28,11.84 -22.77,18.39 -9.12,7.97 -15.9,12.57 -24.42,20.49 -67.88,63.13 -56.27,37.88 -154.34,-38.36 -63.05,-49.01 -109.7,-87.02 -194.99,-115.55 -200.02,-66.9 -392.41,-28.46 -543.01,122.1 -174.95,174.9 -214.83,453.4 -97.65,683.19l46.24 77.23c4.32,6.5 7.13,11.88 11.38,18.56 21,32.98 128.48,168.79 152.63,187.84 27.68,21.82 101.83,99.38 127.23,119.71l236.23 194.04 214.78 155.62c24.61,16.24 128.66,95.02 151.92,95.02zm1900.66 3509.48c115.47,0 134.66,-111.86 175.81,-194.6l87.67 -189.19c42.41,-102.68 97.81,-215.81 144.4,-319.54l87.25 -193.36c10.19,-21.79 20.64,-42.42 29.75,-63.78 9.87,-23.12 17.32,-39.43 30.5,-59.3 36.93,-55.66 118.14,-67.76 197,-83.61 50.92,-10.23 102.07,-22.17 152.3,-34.77l299.29 -71.12c58.36,-13.75 257.42,-51.9 297.22,-76.92 50.1,-31.5 83.4,-106.27 49.07,-170.53 -23.61,-44.19 -93.24,-99.93 -121.99,-128.68 -12.56,-12.56 -18.14,-22.24 -29.75,-33.85 -68.35,-68.35 -90.04,-51.12 -168.33,-31.47l-443.54 102.71c-57.99,12.36 -120.93,26.26 -179.77,40.97 -59.45,14.86 -314.77,67.4 -349.6,88.15 -38.65,23.02 -85.4,156.39 -113.79,215.45 -12.36,25.71 -24.88,50.56 -35.49,76.75 -46.02,113.61 -120.7,261.61 -168.36,377.89l-69.32 151.43c-20.56,40.83 -133.77,275.59 -130.74,304.29 3.5,33.13 81.53,134.84 105.54,171.13 38.82,58.67 77.28,121.96 154.9,121.96zm-3801.31 0c83.95,0 123.02,-88.36 176.42,-160.31 7.94,-10.7 13.36,-20.38 21.31,-31.07l43.41 -65.09c24.06,-39.36 7.16,-70.26 -17.86,-120.21 -24.88,-49.7 -47.29,-100.86 -69.82,-150.92 -11.33,-25.18 -20.16,-50.38 -32.48,-76.02 -51.19,-106.55 -119.6,-264.36 -169.67,-376.59 -33.28,-74.58 -70.36,-151.24 -101.49,-227.75 -9.98,-24.52 -23.31,-49.26 -33.67,-74.83l-34.35 -74.15c-42.58,-85.11 -82.95,-76.62 -218.08,-107.43l-355.97 -81.78c-56.85,-11.99 -120.14,-30.9 -177.71,-43.04 -60.78,-12.82 -116.82,-25.62 -176.39,-40.61l-134.14 -30.48c-77.88,-16.46 -63.51,-11.83 -119.9,35.38l-55.95 52.55c-16.89,16.89 -39.41,36.51 -53.61,54.89 -16.87,21.85 -35.04,34.99 -47.55,60.95 -25.39,52.68 -15.9,112.85 26.35,155.4 39.26,39.55 269.61,79.23 337.65,96.36 58.48,14.72 115.48,27.83 175.07,41.93l356.24 81.51c67.05,16.41 91.13,36.18 120.95,96.05 24.43,49.06 46.12,97.42 67.68,149.32 28.41,68.38 70.2,150.31 101.02,224.49l220.24 486.89c31.06,72.66 58.4,124.55 152.32,124.55z"/>
 </g>
</svg>
